<svg width="56" height="60" viewBox="0 0 56 60" fill="none" xmlns="http://www.w3.org/2000/svg">
<path d="M42.2528 45.1004C44.1508 46.1641 44.8499 48.5907 43.4949 50.293C40.9985 53.4294 37.7541 55.9192 34.0338 57.5174C29.1002 59.6368 23.6052 60.0697 18.4006 58.749C13.1959 57.4284 8.57217 54.428 5.2459 50.2127C1.91962 45.9975 0.0765559 40.8028 0.00233284 35.4337C-0.0718903 30.0646 1.62687 24.821 4.83535 20.5154C8.04383 16.2098 12.5829 13.0827 17.749 11.6187C22.9152 10.1547 28.42 10.4355 33.4103 12.4177C37.1733 13.9124 40.4854 16.3115 43.0675 19.3777C44.4691 21.042 43.8373 23.487 41.9694 24.6028C40.1015 25.7185 37.7102 25.064 36.1848 23.5125C34.5834 21.8836 32.6512 20.594 30.5018 19.7402C27.1227 18.3981 23.3953 18.2079 19.8972 19.1992C16.3991 20.1905 13.3257 22.3079 11.1532 25.2233C8.98063 28.1387 7.83037 31.6893 7.88063 35.3248C7.93088 38.9603 9.17885 42.4777 11.4311 45.3319C13.6834 48.1861 16.8142 50.2178 20.3384 51.112C23.8626 52.0062 27.5833 51.7131 30.9239 50.278C33.049 49.3652 34.9447 48.0226 36.5005 46.3501C37.9824 44.757 40.3548 44.0367 42.2528 45.1004Z" fill="#D9D9D9"/>
<path d="M21.0363 14.9124C20.6784 12.7663 22.1338 10.7026 24.3095 10.6943C27.8606 10.6809 31.3885 11.4427 34.6406 12.9459C37.8927 14.4491 40.7589 16.6427 43.0494 19.3563C44.4529 21.0189 43.8239 23.4646 41.9573 24.5825C40.0907 25.7004 37.6987 25.0487 36.1715 23.499C34.7843 22.0912 33.1482 20.9361 31.3348 20.0979C29.5215 19.2597 27.5815 18.762 25.6104 18.6174C23.4405 18.4583 21.3942 17.0585 21.0363 14.9124Z" fill="#23B776"/>
<path d="M5.01953 41.6564C2.95863 42.3539 0.688174 41.2483 0.331023 39.1021C-0.141607 36.2619 -0.109573 33.35 0.436426 30.5019C1.2307 26.3588 3.0855 22.4923 5.81981 19.2799C8.55413 16.0674 12.0746 13.6186 16.0376 12.1726C18.7618 11.1785 21.6312 10.6816 24.5104 10.6944C26.6861 10.704 28.1402 12.7687 27.781 14.9146C27.4217 17.0604 25.3745 18.459 23.2045 18.6167C21.6849 18.7271 20.1815 19.0477 18.7384 19.5743C16.0549 20.5534 13.6712 22.2115 11.8197 24.3867C9.96829 26.562 8.71238 29.18 8.17456 31.9854C7.88531 33.4942 7.80909 35.0294 7.94287 36.5472C8.1339 38.7145 7.08044 40.9589 5.01953 41.6564Z" fill="#23B776"/>
<path d="M27.6618 55.2978C28.0084 57.4457 26.5422 59.5018 24.3664 59.4986C21.9829 59.4951 19.6056 59.1424 17.3114 58.4457C13.7562 57.366 10.4946 55.4888 7.77507 52.9571C5.05559 50.4255 2.95012 47.3063 1.61922 43.8373C0.76037 41.5988 0.238709 39.2527 0.064919 36.8756C-0.093722 34.7056 1.85229 33.0962 4.01952 33.2885C6.18675 33.4807 7.73941 35.4136 8.06446 37.5649C8.24211 38.7407 8.54674 39.8976 8.97544 41.015C9.87662 43.3639 11.3023 45.476 13.1437 47.1902C14.9851 48.9044 17.1936 50.1755 19.6009 50.9066C20.7461 51.2544 21.9218 51.4755 23.1073 51.5687C25.2764 51.7392 27.3152 53.1498 27.6618 55.2978Z" fill="#23B776"/>
<path d="M42.2135 45.17C44.1074 46.2411 44.797 48.6705 43.4354 50.3675C41.1977 53.1564 38.3638 55.4326 35.1229 57.0175C31.882 58.6025 28.3454 59.442 24.7702 59.4959C22.5947 59.5287 21.1005 57.4928 21.4178 55.3404C21.7352 53.1879 23.7547 51.7497 25.9212 51.5496C27.9057 51.3664 29.8516 50.8247 31.6614 49.9396C33.4711 49.0545 35.0935 47.8512 36.4565 46.3973C37.9446 44.81 40.3197 44.0989 42.2135 45.17Z" fill="#23B776"/>
<path d="M28.3883 14.6802C28.3883 16.8816 26.6037 18.6662 24.4023 18.6662C22.2009 18.6662 20.4163 16.8816 20.4163 14.6802C20.4163 12.4788 22.2009 10.6942 24.4023 10.6942C26.6037 10.6942 28.3883 12.4788 28.3883 14.6802Z" fill="#23B776"/>
<path d="M20.4162 3.98602C20.4162 6.18744 18.6316 7.97204 16.4302 7.97204C14.2288 7.97204 12.4442 6.18744 12.4442 3.98602C12.4442 1.7846 14.2288 0 16.4302 0C18.6316 0 20.4162 1.7846 20.4162 3.98602Z" fill="#23B776"/>
<path d="M36.3603 3.98602C36.3603 6.18744 34.5757 7.97204 32.3743 7.97204C30.1728 7.97204 28.3882 6.18744 28.3882 3.98602C28.3882 1.7846 30.1728 0 32.3743 0C34.5757 0 36.3603 1.7846 36.3603 3.98602Z" fill="#23B776"/>
<path d="M28.3883 55.5126C28.3883 57.714 26.6037 59.4987 24.4023 59.4987C22.2009 59.4987 20.4163 57.714 20.4163 55.5126C20.4163 53.3112 22.2009 51.5266 24.4023 51.5266C26.6037 51.5266 28.3883 53.3112 28.3883 55.5126Z" fill="#23B776"/>
<path d="M15.7112 28.8898C14.7871 28.2299 14.5626 26.9312 15.3625 26.1252C16.3978 25.082 17.6095 24.2222 18.9469 23.5882C20.906 22.6595 23.0699 22.2463 25.2334 22.3878C27.397 22.5293 29.4886 23.2208 31.3101 24.3968C32.5535 25.1995 33.6429 26.2099 34.5335 27.379C35.2216 28.2823 34.8299 29.5407 33.8277 30.0746C32.8255 30.6086 31.5956 30.2064 30.8401 29.3587C30.3258 28.7817 29.7343 28.2741 29.0797 27.8515C27.8463 27.0552 26.43 26.587 24.9651 26.4912C23.5001 26.3954 22.0349 26.6751 20.7083 27.304C20.0043 27.6378 19.3516 28.064 18.7666 28.5691C17.9071 29.3112 16.6353 29.5497 15.7112 28.8898Z" fill="#23B776"/>
<path d="M18.2196 43.8045C17.5622 44.7304 16.2641 44.9585 15.4559 44.1609C14.5001 43.2175 13.6965 42.1259 13.078 40.9242C12.1448 39.1107 11.6607 37.0997 11.6665 35.0603C11.6723 33.0208 12.1678 31.0126 13.1113 29.2045C13.7366 28.0063 14.5464 26.9192 15.5075 25.9814C16.3203 25.1883 17.617 25.4237 18.2692 26.3534C18.9213 27.283 18.672 28.5527 17.9227 29.4059C17.4691 29.9224 17.0772 30.4931 16.757 31.1069C16.1181 32.3312 15.7826 33.691 15.7787 35.0719C15.7747 36.4529 16.1025 37.8146 16.7344 39.0425C17.0512 39.6581 17.4398 40.231 17.8905 40.75C18.6349 41.6075 18.877 42.8786 18.2196 43.8045Z" fill="#23B776"/>
<path d="M33.0606 41.3488C33.9812 42.0136 34.1989 43.3135 33.3947 44.1153C32.4507 45.0566 31.3616 45.8468 30.1652 46.4539C28.3553 47.3723 26.3521 47.8448 24.3225 47.8321C22.293 47.8194 20.2959 47.3218 18.4977 46.3808C17.3089 45.7588 16.2298 44.9549 15.2977 44.0019C14.5036 43.1901 14.7376 41.893 15.6664 41.2398C16.5953 40.5866 17.8653 40.8344 18.7194 41.5828C19.2315 42.0314 19.7967 42.4194 20.4042 42.7373C21.6218 43.3744 22.9741 43.7114 24.3483 43.72C25.7225 43.7286 27.0789 43.4086 28.3045 42.7868C28.9159 42.4766 29.4859 42.0957 30.0036 41.6535C30.867 40.9159 32.14 40.684 33.0606 41.3488Z" fill="#23B776"/>
<path d="M29.8692 25.9221C30.4504 24.9466 31.7262 24.6155 32.5955 25.3461C33.6927 26.2681 34.6302 27.3719 35.3647 28.6139C36.4494 30.4482 37.0565 32.5254 37.1303 34.6552C37.2042 36.785 36.7424 38.8992 35.7873 40.8043C35.1407 42.0942 34.2818 43.2603 33.2511 44.256C32.4344 45.045 31.1389 44.8031 30.4914 43.8702C29.844 42.9373 30.0996 41.6688 30.8532 40.8194C31.3498 40.2596 31.7733 39.6355 32.1113 38.9613C32.758 37.6714 33.0706 36.2398 33.0206 34.7977C32.9706 33.3556 32.5596 31.9491 31.8251 30.707C31.4413 30.0579 30.9755 29.4645 30.4414 28.9405C29.6308 28.1453 29.2879 26.8976 29.8692 25.9221Z" fill="#23B776"/>
<path d="M18.3388 41.1599C19.1512 41.9724 19.1512 43.2896 18.3388 44.102C17.5263 44.9144 16.2091 44.9144 15.3967 44.102C14.5843 43.2896 14.5843 41.9724 15.3967 41.1599C16.2091 40.3475 17.5263 40.3475 18.3388 41.1599Z" fill="#23B776"/>
<path d="M18.3388 26.0909C19.1512 26.9033 19.1512 28.2206 18.3388 29.033C17.5263 29.8454 16.2091 29.8454 15.3967 29.033C14.5843 28.2206 14.5843 26.9033 15.3967 26.0909C16.2091 25.2785 17.5263 25.2785 18.3388 26.0909Z" fill="#23B776"/>
<path d="M32.8579 25.5409C33.6552 26.3382 33.6552 27.6309 32.8579 28.4282C32.0606 29.2255 30.7679 29.2255 29.9706 28.4282C29.1733 27.6309 29.1733 26.3382 29.9706 25.5409C30.7679 24.7436 32.0606 24.7436 32.8579 25.5409Z" fill="#23B776"/>
<path d="M33.4079 41.1601C34.2203 41.9725 34.2203 43.2897 33.4079 44.1021C32.5955 44.9146 31.2783 44.9146 30.4658 44.1021C29.6534 43.2897 29.6534 41.9725 30.4658 41.1601C31.2783 40.3476 32.5955 40.3476 33.4079 41.1601Z" fill="#23B776"/>
<path d="M7.97204 33.5409C7.97204 35.7423 6.18744 37.5269 3.98602 37.5269C1.7846 37.5269 0 35.7423 0 33.5409C0 31.3395 1.7846 29.5549 3.98602 29.5549C6.18744 29.5549 7.97204 31.3395 7.97204 33.5409Z" fill="#23B776"/>
<path d="M56 34.4427C56 36.6442 54.2154 38.4288 52.014 38.4288C49.8126 38.4288 48.028 36.6442 48.028 34.4427C48.028 32.2413 49.8126 30.4567 52.014 30.4567C54.2154 30.4567 56 32.2413 56 34.4427Z" fill="#23B776"/>
</svg>
